<mxfile host="app.diagrams.net" modified="2023-03-26T21:43:46.619Z" agent="Mozilla/5.0 (Windows NT 10.0; Win64; x64) AppleWebKit/537.36 (KHTML, like Gecko) Chrome/111.0.0.0 Safari/537.36" etag="HxbLwniJxikLlS8Y2jAF" version="21.1.1" type="device">
  <diagram name="Page-1" id="2cAD6NYbJkSspg9XFFVa">
    <mxGraphModel dx="1434" dy="717" grid="1" gridSize="10" guides="1" tooltips="1" connect="1" arrows="1" fold="1" page="1" pageScale="1" pageWidth="850" pageHeight="1100" math="0" shadow="0">
      <root>
        <mxCell id="0" />
        <mxCell id="1" parent="0" />
        <mxCell id="9jKxoWzivTiZBL-5wqo1-5" value="" style="rounded=0;whiteSpace=wrap;html=1;fillColor=#ffe6cc;strokeColor=#d79b00;strokeWidth=2;" parent="1" vertex="1">
          <mxGeometry x="80" y="370" width="600" height="180" as="geometry" />
        </mxCell>
        <mxCell id="9jKxoWzivTiZBL-5wqo1-1" value="" style="rounded=0;whiteSpace=wrap;html=1;fillColor=#ffe6cc;strokeColor=#d79b00;strokeWidth=2;" parent="1" vertex="1">
          <mxGeometry x="80" y="120" width="600" height="180" as="geometry" />
        </mxCell>
        <mxCell id="9jKxoWzivTiZBL-5wqo1-3" value="" style="shape=image;verticalLabelPosition=bottom;labelBackgroundColor=default;verticalAlign=top;aspect=fixed;imageAspect=0;image=data:image/png,iVBORw0KGgoAAAANSUhEUgAAAkAAAACUCAYAAAB7qpYmAAAAAXNSR0IArs4c6QAAAARnQU1BAACxjwv8YQUAAAAJcEhZcwAADsMAAA7DAcdvqGQAABi+SURBVHhe7d3JbdxIG8bxicNhKQbji6MPvk87BAnQ1XOSQvDJcha2MZgg+LE2spa3yCrubP5/AGGpm8vL4lKPyHbzr//++6/xBwAAgEdHAAIAAJdTHYB+vtya200Nz81P+xoAAMCZ1AWgj2eCDwAAOL2qAPTn/d7cXog/AADg3AhAAADgcghAAADgcioC0J/m7X5r7u9/7O8AAADnVBCATPC53e7N2y/7EgAAwIlxBQgAAFwOnwECAACXQwACAACXQwACAACXQwACAACXUxWAzKMw+N9gAADg3OoCUEtfBeJhqAAA4MSqAxAAAMDZEYAAAMDlEIAAAMDlEIAAAMDlEIAAAMDlEIAAAMDlEIAAAMDlbBqAfvz9qfn06XPz7Xf7y8fX9udPzdcP8x6a5t9/Pus2+fzPv/YVaL+/NZ/bdvn0v2/Nai1j90fT9j+ar2p5f/8w761Ff7Go+k6tW/PMcQAAm9o0AJkO/kwB6N/m2/+2CyTzA9BYvbZjj4e1O/qswvbdIgDZZWwXgH42zwQfANgNAWjQtgFovrIAdJw2P1D7bh2Afr01d75NHQB2s+1ngHTo+dp2Ly3d4dgwdFgEoHUdqX39ttmgLgIQAOzqkB+CdreCuiG+9WGvHvWDDVVa33mZzxzZQbh9ErwfjGOvAIiDv6y+0wxqjq8cuFs43eDPoxWtTxpQ3HLMunXjdsuprzfHrEdYn36ta5vy9k3X2wXeunq793JXZBbaH4ro4HJrbve35o99aRICEADs6nABKPigtER3duH7ZhrX6fUhof8L3nSk/l/0Yaee03eeMq+Ddp2z7fT7kNGOEyzH1icu28wvF4DUcrr3kuUoZfUuEYDG2teFknwtyli9Pb2NpQC00P5QbKEApB8qPDdEAQAmO1YAEjt1n+3Mko7Q79ilcdKO1nT0Y7fgxjpoG0xGlhXLh69cQJE6bGncwnqjIW2XggA0uM7SOJLxtnLkAJRbjt82JfVuRwefNkDd34k+ALCnAwagoVCS67j8gFDe4ZnOvh1XD9JyxzpKKZikzBWJaNgxAKXz7y0ZgMbapXw824aZAJRO77dXSb3b4woQAOzroQLQnL/4TccfL3tsOimYhMYDhS8XUKTlSOOW1XuVADRnf1gdnwECgF0d7DNAtrOKOmCfFFR051jVQQsy4Sucd0wKJqEkUNjbfOsEoLJ6hwJQ/JkaU399+7rpBpfVGq63Jwcgt5wV9occPgQNAA/hcB+CVnQHpjpdN0QdZNcpi++XdXjJMtpB7qxNaOjH88OZFExiwvQqZHg1S7XooVsHaTm5MDNeb1EocdOrOoN6KwKF/SB0P6QBc7DeZHphnNYS+0MxAhAAPIRDBiDg4RGAAGBXBCBgF+ZRGPxvMADYBwEI2Iu7ndYOPBMMALZFAAIAAJdDAAIAAJdDAAIAAJezSQD6998J/90YAABgJQQgAABwOQQgAABwOQQgAABwOScMQPbRBvZxCNKzoAw3nvR4hINxzwfTj2uwda9S75/m9f5X89ftS/Nd/fb+1P781Lz+Mu8Ck/x6bZ5u7X71ovcqs4/dX3nSPYBDO+UVIPOsqqEAlD47S48XhQrptX3Y52GtHoCa5vvLSAD6+NK+psbxBr8z052dEJr0dGa+XYcYdYJ62X4nGS/HDXqcllSLGrr5hoHOMev1V/PFfrmg+z0e3PtlMjVHtTwl3+z8vfniLcu0f7RssU3j5fXv59bHDNE2yL3vxOMF28zULravNB4BCMCJPGQA0u8HD79UTLDwHwRKAMoFIL/D8zu3VnEAemqe2o7Q7+j7AOTLBQdfGCJ6atp4OelrZj2jjr/aWJ2594UApOvzAkLcpi6UBG3Vzv8lDRVpGIkN1G0DZth2qj43P1P7k6rXm54ABOARnDIABcFFPzHcezq4vp0UPi3cUcFo7KrQPkzocbXJAW4ZQeeVhJ2W8JrptO00FQHo9b19zevE1wpAwXLUstugoOZ52ACk64sDT/970N4jpgegknrtz+9tfd4y0mWG85K3MwAcy8N9CFqHGhsezJUiO7SvufeC16PBXCHKXYXxr9S0XPhyn+EJ5uGJ3p8euv40b3f17Kh78xYHkKXEAchejeg6ypoA9Et1jFHHvmgAUq+r+at/zbJV5/zlI5zn8QJQW4lqLz+0dW2aW1fZ5ABkt2u6HDO+qa2vRdXtxh1fJgAc38MFIBVudADprgz1V1f8cKQMXgHS00efLYqvNunfVajpx9PzTK5IhaFIB7BJIWirANR2gN4QdJJVAch0lq7zXS8AuQ5azUvVEM7TBKBwneo//D1WZ+79TADSr6ftlW3fjHkBSF5OWKOt3QtsBCAAj+DBApAKOyaMqJBhbimpqzbmNRVOym+BhbellH6elhSS7FUiF3h02PFCl6ZDUTzdQfhBJuq8tcoA5Hf0awYgvXz1WRU7f7WsMAC5dZrK1JkEqW59agOQqUuPf4YApOdjxicAAXgEDxaAXNgx4UWHEO8zQXGAGQ5ALf+KjxRaBgKQW44OQPoqUTycIQAJnV11ADIdqupEFw9AwXKGg8ZSAShfZ30A0vWrtvXXQ/8srGvGvAAkLccfP6xdLUu9TgAC8AgePgD1t6T6K0HOaACyYaabT3wlZ+oVoCOLApDpBP3AI4eRoFMMgon9vX3vddUAFNo+AIXL7EQ1xuOo3/WHjLtxzHLSdpJNDkC514NgFLe7+v1L80oAAvAAHvYWmAk+Knx802FI/RzcvlLEABMyIemzfMtKmF4HHj9U6XH6QDTPDh+CbulO2+vw4t9dR9l1pkkwUZ3tUxuCpI59PFikHbGllyMHGz9obBWATNuFgUxsO78N1DSqbfzp9HzitmqXv9V/g++Wm7a7ql/9t/hpAWiD/RcACj3uh6ALxbeo0mnNFR3xKo4NN8FQOt6hPwQdhQV7VaDvRG1HqTppOwQdbBKAWmKnrox30MngOl+pVisNQNE82iEJVIMG6vQky4qCQhKAuraM2su2eT+v6H0rG4CS6d0QtVfcxkFtQvB0850UgJrm54vaf9vh5ad9BQD28XABSLxVNUt4SytQcAUJgOfXW3NvA9B9JEgCwNoeLgC5wBLc7vr9rfka3/4qYj5LlA1UBCCgirkCxC0wAPt7wACk2NtW3VAbUrzph64mEYDOL3uryBuS23ao9vFsbn3dnhtufgE4ggcNQAAAAHmbBCAAAIAjIQABAIDL4RYYAAC4HAIQAAC4HAIQAAC4HAIQAAC4nBMGIPvlhPYp7eaZX0f+Lp7t6tWPWXCPTLCPOKh73MMZmcc18J096B4rcph9YMq+WfbIlX0crX2xroX2X9sXmdfsPA+yD53yCpB5ftdZAtB29ZrnUBUEIPf8p4nPczqq9DlbGCc872s3czv/43bQ5fvm3gFoaH9Ytn3HH+RbKPoyU7/t5OcAzn0w8vXM2n/t9iEALYQAJCsNQGpnfnp/bXdE+QGbZ0UAmoIAtAUCUGqJABSc8wSLhayLIwDNsHQA0iHCPU1dP47ChIuj2qxeHXrsXzd6p5NODGoHNK8/WmAgAE1BANoCASg1O5xkz3E9AtAy5u2//j619/4desAPQZvP3KiHoZorL3ZwAcQTvN8O/QNUzTy+fvTPBAt/tqNp8XPHpocb86DIW/O8ZmekQpI7IfiByepOGO42mR6mXSnSB003D/+kag6CLx/2rwH9nv+zHauylqGDNK7FH08vR5ivmcZvn75GMwiX0qPL8dUnX7t9vuuazPT+z2Zepo78ScaJ6/Wmiev0h6qa+xNa0MbJPGzn6S2nrz+tsx9qbleU1uK2eT9O2JaFkjactm/Gtaghrmes3m7+QU0VbVe0P9ht2C5nrH2D99vBrzd+zx/k4CXrzg/2d0nJOGNM2690fojG6ev155VbtjdMWccN99+jetgAFAYaE1L8J8SrqzJBkNFXZly4cfMwt6pcUFLv6Z+7B6TK850agrYIQGpH7nfOtNPsdmbvgNI7f+UBlkxjDzazLNcZmgPOHczqPf9A6w+s/iQxVIs/rS+dxp5cunHN7+FBG7dNOo6pzzuBBetoDNUrcmFP1eZOUGp6/bM7QZXU24eBYfF0tfpgE+9X/e99x9mx6xbWV1pzTl/L0LZNtpswzihhW5v5yp1Ibt9Ma0nboKRePX+13t14QpsXGdof+vbtl52Or+oNprf7dDxPvV41x0bEtWm/7moI29+0nf/+lH1d2j/i9U7HEbdbsL62Pb3X+nr79YjPIXPbTdtw/z2yxw1AwVPc+6tCeSbMBAHIzsMPPf7Pwa2tjj+fo1EHqb+DpyfJdIe2r9UccEFn3esPonC5/sHl/yzVkpu3Ih6kwoGu6ZNyP+9kHe2VmOGTTngSzC9frlek67Lj+9MG80lPtnEtXRuPbrd4ulrpPuRe6+rz18mTtmk0XTWplng58vrK2zdPb+tk/Hz94r4h1hLPo6xePf+5x602tD9I7VuyzZZp85hZ53C+ep7xOcNj3s+tX15S64TzgySeztQXHSvSuUo4nmpst/8e23UD0O9vzec2qPS3rsxQHYCEeajhkAEoOpAUczDFB9fME6kNHe4vrmDQB1F4IvUPLv9nqZZsoGmJB2kugCSdsn8wpwexqaWdvzC4WvTyhferTlZ+XbMCkGLb2dUhbsPxk/SwcFsaUfsJ+52Sbt+03etItcTLMesbbh87VOzjcocgL18p3zfjNiirV8+/5hjNGtofpPUTtpk9RuN643lWn1ci8jYY25/z22iYP990nUvOD4p4jvDaID0mZOHyKs4v1nb777FdNAClt67CKzcVAUj4bNFRiQefHdxBKh2A1Scq8cDwhQeaf3D5P4sng4F5lx+kLaFT7qbX09S3gbj8WosGIJ9t82QdxqYbI500o5PgUAAK6pl78pRqiZczd30NeVvn65fHl2qJ51FWr55/zTGaNbQ8qX3lesM2kOdZfV6JiNPr42SovaT6ysw9P+hxRqaTxhljppHPiTnb7b/HRgCydLCpDEDuKlIYpKZb9zNAuRNbeFIrOUjH2XlmpwmX6R9c/s9pLeF0saGDOqwlcxK0IeOpHV9+b+TA1h390Mm3QFEAitvBrM/YsuXtONym46TpzWt9W9n6/HFse8b16m1Yta/5hFqE5ehlVHYyCWFbS8eOM7hvdq/b39v5+vtZSb3z2s0nbU9Hes+8Fm/rtH5h3/T39UnSc9pYO5S0ZZY9BqeeH5L9w07j1zu0D2XZuqraccP9t9ivt+be9n+3+1t2+y3tsrfA4ttXn//5ocepCkCKeCvtgB+C1ju8vHP7O750EOjXqk+u/cHgD+aACw8c/+Dyfza19NOqITmw7IGcDv46pLXkDtDBE6Q7YQVDNK5UT03b+Z2Cf2KLT3JRLV8+zDr2J7Q+FPVD4XpVbetwWxrmtbCN03qSDlGLx8vUnGG2nz/IHUM63oSTdrKtC/aFZLxwfVWbqNriWsbq1e9XH6MZ2f2hbFvHx+3T+/do3+zF6yXvEwNG9t2k3YLa65n5FR5Heshva/2e2ke8mqXzb0zaF6rbTdlw/y3zs3lWAWjl/wjke8AAhEdRcjJYmj65zDxJAnhMnB/W9ef93gage/NWczVrBgIQDmvrALRH4AJwDpwf1mavAHELDNjuhNNfUubkBiDE+WF97uMft5ef9pVtEIAAAMDlbBKAAAAAjoQABAAALodbYAAA4HIIQAAA4HIIQAAA4HIIQAAWpb++4PRfFqe+4bby8QIbOVv7Tv9m4K2UbOvj7g+Y7oQByD6mwj5uwjzS4nPz7bd597DcIzNO9PDUbZjnsk19fEgR1/b6ESZ2/1llO9hHBdjvCzHfY7TOSdPM230/yYFOzPrr8/P1mO9UOUa9rg1zjxEw7y/w3S/uEQlLPKpipH3niR7VsEDIGmvDrfaHJbZ11brYx0hMekQFNnPKK0DmwaVHCUDpc8ZEqwcgFwyjYcfAVfa0/A0CkFvG6gHInQTXD0Ad3bkeI1C4jn7opL9Jm5Qq6KT09pwbXJYKQNn2jYKLHeZ0vnq9cwFIt1tBMCwIa+P7w0Aoc+0aDeJ6L7Sth8YJ1oUAdAoEoNkKA9DqjlJHrywAbYEAtIWSDsS0SUHnuYWCDrok1G0l374mJAS3mWwHPPXWk17WrAAkPTg1Nbg/jIWImn1/qW09MA4B6HxOGYCCjvXj68pXD8YQgHKOE4DCtkme6L8gfRJ0nVRRRzHTUQJQYVA4XQBqlQS71Q22rxCAWnPqnh2ACts2vz+YdRoPI4X7/oLbOjuO3y5HOS4x6CE/BN13vO72ihr8q0Tm9TAsmNe+ugPOBSt368oO3fvBvOPBD2TReHHHq5bT1vpDX8lq349+DirUV776oa9FGQ9A5mpZGBbjkNL9rtffLUu6wpauv6snrtMf+prtlRj3XrSunaAONWTqH623xJ/m7a6eSbPW04jt5fy4YxE6N9MxtOO6IdcZ5U600glf6rjssrvlCCf2pBapw5LmXS263ZFdL38cM/idf1zv7A/gTl63aH0y23B++w4EoJErMDnStGmd/RAvW487JzSWtPkaIaNkuZP3BxzN4wagqCPUnXLXyZYGoLDDlQKE68hLrryIVx7cctTr/ueE9M+5+lt23DhQLBKAXA32tdyyx66ixPPOyY6n2yYMMyZcxdtkpN5iawcg14mEJ8+ks2hPsEGHYkOK2JHPCUB2vn7wSv66LTzZz+7w2ilf7+FydC2D9aYdf9q+cjioskBHmw0ji7SvsI56viNXUAYMhqeCmgenL+DW97venmo/MEOwPnZ/8N+fs0ytZFsvsD/gGB44AEVXAXRn6jrO0gA0NA9niQBkl+OHntzPnnB+0RUVN3jLM+1SEoCGxykNGPF0OfJ4dn2SkBVup5J6j8V0Vv2J3HxWYriDHhgndzLWndRwABI7qXh+hR2pntesACSIO1qh4w3XIW5bY3Y4sx3t1DChZAPBIu1r1jsIAgWhaki2XkXYDqGyz/8MMUFWCnUDwcNupznLLdrWC+wPOIYHDkBxUPGdMQDZQBMPUQBa5gpQQQBKgkkqni5HHi+3PuG2K6n3aILOTOxMpA5tpQAkLEeern9fOvHPDhkt1+mFg9c2SccTX/mQ200PswPQQMdbYDxQ9LXWt2/cDvPNC0Aj0xeQ13f8jwWzDw3XNqhkWy+wP+AYCECdowegqJbEtQLQea8AtbwTaNpRSH89b3gFaIztrJNOuqBTHFRQr1nXtmZvCNvEBIHF/zKfu26t4rae1L7HC0CzA7G4jPH11HUvvtxIyTg4hYsGINO59p246VTVFZX6AGQDQUGHOzkAuXoHl1EQxKJ1Mu0UzrcoUOj5FIQ+qQ0FucBiagmnj9u6qN5i638GyFEn6qf31/aEHoeXNAC5KyNVAciGha4j1SdtFRq8E7d9rS4wZEJGvLxauhZ/Pcxy/HpLQoQeZ+HOaTwMjC+zpHZjSvtWBKAl6i3Z1sn2rJWG/tGrO5P251DxPla0LXF0Fw1ALR0w2s60Cz4mQEwJQH6AMoM3jg0L6WDH8ZczeNXHhqBoPl299v2xUKIDhJtehQS1/CmBImq/sJZesDx/HGF6M4Rtburx3o/qKK63yHYBqOuIpBNp10nZoR1HnXT7zsCGJH8cO6Qdhnuv7Th0xxV1IPGy1OD9BR3Owwy5jlZ3DJP/+o7Xqe08P+J6XSiKhmiZuo5onKJwIMoEEqdrP6Fjlto2GneZ9l0oABXU68R1p8tOg3y9eHtHdST1CutUZWRbayXj4CweMgAB2MHcq0CDch1qRec/wbxQt7BV23cFOqDMuQq0rZJtfaj9AbMRgAAsZ7VOLxOA7FWANULB6C2XPZwsVByyDQUldZ5lXVCOAARgUbqjmHXrI8NeAQlve6wVBtSVpWMGjdXadyXqqslaV+iWUbKtj7s/YDoCEAAAuJxNAhAAAMCREIAAAMDlEIAAAMDlEIAAAMDlEIAAAMDlEIAAAMDlbBqAfr6oxwyo4bn5aV8DAADY2g5XgOzzll6IQAAAYB/73AL7eG5u9zeepwIAAHZBAAIAAJdDAAIAAJezTwD69dbcb/fmjQfLAQCAHewTgDT7YWj+RxgAANgYV4AAAMDl8BkgAABwOQQgAABwOQQgAABwOQQgAABwOTsEIB6FAQAA9rVpAOoehsrVHwAAsKN9boEBAADsiAAEAAAuhwAEAAAuhwAEAAAuhwAEAAAuhwAEAAAuhwAEAAAupywA6ae3m+/wub/zDT4AAODc6q4AqUdY3O7N2y/7OwAAwAlV3gIzj7F4/rC/AgAAnBABCAAAXA4BCAAAXE5lALIPNOVJ7gAA4MSqA5CmPwzN/wgDAADnxBUgAABwOXwGCAAAXA4BCAAAXA4BCAAAXA4BCAAAXE5dAOJRGAAA4AGUBSDvYahc/QEAAGdXeQsMAADg/AhAAADgcghAAADgcghAAADgcghAAADgcghAAADgYprm/4kWEP/Tm3ZoAAAAAElFTkSuQmCC;strokeWidth=1;" parent="1" vertex="1">
          <mxGeometry x="90" y="136" width="576" height="148" as="geometry" />
        </mxCell>
        <mxCell id="LRrMOl0kTj3Txce7bID4-2" value="" style="shape=image;verticalLabelPosition=bottom;labelBackgroundColor=default;verticalAlign=top;imageAspect=0;image=data:image/png,iVBORw0KGgoAAAANSUhEUgAAAsoAAACtCAYAAACp+FmLAAAgAElEQVR4nO3d3Wsbebon8K+WuT5oQnD0gnNaXibQhExjpceD1GQu1OyCTWyS0jYzSKRv0p40OMQNx8EXEjgC+SJ0Dh2HGCYrcrHxSpxDH8nB6pHhLK2LE1pi3LFMTxMWcsCa7UYvMSHHnH+g9qKqpKpSSSq9WZb9/YDAlkq/eupFpad+9fxKFlEURRARERERkcZ/GXYARERERETHERNlIiIiIiIDv2j2wt5GBFv7AODC3MqnmDy6mIiIiIiIhs44US48w9Y+E2QiIiIiOr0MSy+qb/4DmLjEJJmIiIiITi3WKBMRERERGWCiTERERERkwCBRrqLw+hDWs/ajj4aIiIiI6Jiw1H9wpIrM2hN8f2jFb+YXMeMYbmBERERERMNkafxlPilh/vcLt7A4bRtOVEREREREQ2ZQemGD+4IVh28rRx8NEREREdExwcF8REREREQGmCgTERERERlgokxEREREZMAwUbad+yWw/2/IlI86HCIiIiKi48HgrheS6vYanuwcAnBhbuVT/pw1EREREZ0qTRNlIiIiIqLTjDXKREREREQGmCgTERERERlgokxEREREZICJMhERERGRASbKREREREQGmCgTERERERkYSKK8+9AJp3MemxUAhUdwOp14VBjEnEbTwfN5OJ1OzD8/GHYox0tlE/NOJ5y3NjGwNSPvj9K638UjpxPOh7uDmps8z2eIRCKIRCJ4xs8BERHRyBhIojz+3swgmh2gA2zeGqXEtV28cgKofww6IWzqGK1f+ziOdu/cw7N0Ea7ZFaysrOBT95HOnIiIiHrwi2EHcBqNXYuhdG3w81lOl3BnlBIz+3XESteHHUV/lSv4D7jwu1HaDkRERARgQIny2PlLAIDzdgAYxwxmMG4fxJyIOmQ/j0sAcH4MADB+FZh5b3yoIREREdHxNJjBfO47KJXu4DIg9xLGcN0gUVZqdWsPfW2qXE9afzxCvXigfjlfqolu0gagfV0zjVKiMInb3wCZhckm85Kme1TQxawvZVBqbA3baFyexrptZT7SsjXOx2y87UnLoX3PwfN51boxv34bl1uuT+9w/bYtEenL/nAZd0pKT/sYrj8pIXZtrHFe5QzWIhFE1jKomlynREREdMKIQ/LyK4focHwmpspNJthda3hdes+a+FIURVF8I6b+6BAdDof42eYbZQpxTfO/KL7Z/Ex0/DElvhFbkdpSv08XrbjmkObl+Eqau1hOiZ85HOLarmoazXzk+AznLbVXf2/jfGqvNczHfLyN7ata2PxMtS5Vz9XiNbd+pe3UKhYz8aoi/0q1jtX6tD+YVvqz+PDePfHewz+Llc7fXVPJPOy5DSIiIhqO4dwerrKJP30JLKeNe5qBA2w+uQ/c/Vzz+uUvtrCM+/hO3RN7d0vVIziO8asGzX2TwXeVPsR9dwulLy5Lf9s/wsxV4MeflP7Ky7jz5DrqfZNj+Gi6u2FjM+t79dpipVSgC/dntT3pXQ2ma7l+le20Zdwr2zd93h/McMxgcWUFK4szsHXx9ur2GiKRCP4Zv++6DSIiIhquIQ7ma1+33Kx29MefDgCTg6PGrsWwh3lMfujEbXm+j182S9A7iUe6bK8eerb70Im5L3Vvujq8O4Ac1WC+o6rx7cf+cFRs04tYmZYT5rVf4RaTZSIiopEzkj84cul8Z72XY9diKJVKKJVK2FsHbn+o1ND2z8Hzecx9uYwteT7SvEbtNnmjqdP94SjZPvgVrIdv0efdjYiIiI7AcBJl+0eYuZrB7Q+bDUCTyhYyCyFNQrv7cA73rz7GH3roPRz77YzBfXTHcP59ILP9Xf9+6KKyidBCpl+t6fQer3Rnkh/xk7x+D57PY7LjeJXtNNnmB2V6jXdw+0NTHMxHRER06g2p9EIqWzj/0Ik55/3601cfY0+u820smdC+bpZROcRyutRQenH5iy0sO+cw6VTmtowt5c4dZpbo2udYXphTLc8yttLLyDxpEcusE/cBbe2zSb3GC/cdbN11Yk5Zv1cfYy99CZNP2r1Ra+xaDKXzj+BUlgWAUXlLy3gLj+CcVe0HmIPzS+00/dofiIiIiMyyiKIoDjsIohOrnMFa7C1+t/IpJocdCxEREXVkJGuUiUaGw45fooh/22YBBxER0ahhjzLRoJUzWIt9j0MArtkVfHrM7tBBRERExpgoExEREREZYOkFEREREZEBJspERERERAb6migfHPTtLsREREREREPFHmUiIiIiIgNMlImIiIiIDDBRJiIiIiIycIwT5QNs3nLC6XyEXQAHz+fhdM5js9JsOvlxaxPHtlK6sol5pxPOh7uoxT2QeKtIrFlgiawiD6C67Ycl4kei3PcZ0WlSTsAfscCykUdtH1tLgD+lQkREJ9UxTpTHcP79dtPs4pFzEpnpPZRKJZRKJexNZzCpSz4Pns8fjwTafh6XjmRGNrjOtJmksApLxKJ9qJOecgJ+o+S6sFpLwGuJky5Zym/okin9fJTHRr55LJp2tYm/QjoBsGC1oP1f/1BeN6dJzLpY/A2/tJfHqmpe+Q2DeRuuU/386q83Wx7podsGzV7XzLvJtpZjN1y/6ukcLvC3UoiI6DT5xbAD6MXuwzncv7uF0rWx2nNj11bxeHsS/1S4jjv8Vm8jitxKCB4AUrLkhX3DBfGGp4M2BAgI4mkhgFDD+rYhsCgiAEBKCO1IXqggOW3TTuYOQXSHajFgVjRoS4BgDSNbCMHjltrLvgYEa6tl6p4wZRBnp6wCCi8SqLoDMGypnIA/FkRqIgdxUYm4isRGAtUbAdimkxCn5We3/bC/9qOyqGvLEUByJYCW67ewCks6jOisiKS87hJrdtjXoGlPsBbwYLva+3ITERGdEMe4RxkYf28GuDqOcQBj5y8BuITzdvnFyib+9OUytr64rHuX1BP9409D7z82MI7xq8DMe+Oo9Zi/fx5j7d7WBddZAbC64AJgO+cG4IbL0eodHvgmALwrdnwp3X8hivCrfPsJe6SZTzmL5Bk//AOfaw/O+OFHEtkmJS/5b4NIWeOoaE5MbAjcaJJYd6WKxIswhKmK6uTDhsBiDtHDIJ6qerzdF/zA62yL7e+CywoIZ12oXbU44+pjrERERMfLsU6Ux67FUHpyXUok3XdQKt2BkhYf/CWDzN2PcBnA7kNVjfLDXYy/N4PM336uPT+5kAG+uY1JZ326RwWgeZ3wLh7VaokBFB5JtdJKjbGmDRXd643tjuH6kxJicg/45S9KKDUk+gBQRWYtgkhkDZku64pt00mISm+hOwSxXS9rOYEH+4Bwwdd54vPBTcTfPRhgDXQRxUMAH/gQ3c9Kddc/JOG+6AMAFN4c1ypZFwJX3Ah+a3QSkUd2H4he6WdSbKCcRfIQcJ/Tz0VKejUnOOcCWDqjTZ61pCsESo+z54bY4dUHIiKi0XKsE+VWfv5bBsu/uwwUHmHuy2VslfbwuNZbK7n8hVy3vD4DXH2MPbmOuVQqyWUZY7h+axn4JoPv1IMEC9/hPvS91fcx92EGMy/rbd6flQYaApCS5A9v41K6Po+t92831EsfL2F4lZrVWBDuWbHLy+42+C4AyR8GnbB64JsII1uoIvvaDZ9haY1qmXQ1v0Phrif3GuUiChDgOpLuWKP5GNexey4ezdUBIiKiUTCiifIBfvq/Mxi3A7v/dh8z63/AZfyMn7+Zwcxvpd5adcLckvsPeHw1g8xf6ulsvU21GTx+GcN1ufRj7NrnWMZ9fCf3vu3+821k7m5p6qIv//4xZvRJuCk2zCyuYGVlETMtyyV6FUVuRYS4kkO0x5Zs00tw7zxtTAj7zHMxivCLBSTP+OAxTPaUZVIeSQS6WIepHbvxwMPOI8bNKan2dyS4B311gIiIaHSMaKL8M37+BpASZuDS+TGg8hN+lGuYf/5bpoO2pF7lzMI/Sb3DlU386ct6wt2Ophb6y7l62YXTCeeHt9FJJMPjwc0pAeEXvdzqS+nt7WNYinIRtWbdPkQPU3BfrF/yT70t9n2WwlRFlWz3VmJg+6BZ7W8KxSPJn43mU0XxnVJvrHZUVweIiIiOvxFNlBsd/CUjJ6W7+K6DRBcA4P6o1jss1T5/Xus5bufSedV87m7Vyi7qj5jptobJNr2E6KFq4JnDBbdBglV9U6gNEtTzfBxH4UUC/U9bNXNBaMXorhhHRerFbkjOW5VSOOTa3x/Uz/ng19cID4I8n4Y67qa1y/WrA9nBRkZERHTsjWiiLN09AhjDR9MzuD/rxOTfZvD46n3MOefw4/qqJjkdO3+psQ5Z4zL+sD6D+0/mEVoAHv/eaICd1u7DOdy/+hh/kBO2y79bBr6caxzg15XeB/N1zgPfRArBr5VeZekuGNpe5jye7qSaD/hz+OBHEsl3g4iv3V07jo7nYhTY15YnSHew8MPXJEbPxSjCr5OqZ2wIXIkC+15dWYd8e7i+RSvNJ7VjV93TuYrE19Jt6YxPOKSrA8nX3c5zGPsvERFR/43ofZTHcP59KfEduxZD6Zry/HVcN5rcfQdbd52Y+9CJ2/JTy+mSpp547NrnWF6Q7sscM+wBzuC26v24u4XSE1VC7b6DUhpwzjpxX/22q4+xp9y545jzfByHEAtiYduH5LQNnhsVxNfssEeCtWla31/YJt3lIZ0C2v3giZp8n9+atAXhNABrXLrPb7WIFIAlU42F4Y2ENc9EDe/L3AN3CJU3fthjFtTWjBJr0/fcRPxFGEEI9VvauUMQbS74Y15YIsqTAuLzSfN3wlDuxaz8v2OHZQfQ3E/aHYIIwKKsVwCYyLUsJ/F8HAdiQcDazQ34bLCfAXB4iO+/3cPMjcku2iAiIho+iyiKYr8aOzg4wNjY0aSEB8/nMfm3z5vcXq0bu3jknAN0CTQA6fZwsz9qBvMRUQvlDNZi3wNTt7DIHzAhIqIRNaKlF3IP8JdzmH+uGkxX2cSj593cjO0Am7ek3mT+mh9R7/a+/R6HsOJXHzBJJiKi0TWipRcAcBl3Slt45JyEc0F5bgaPXxoWXzQh9SLfB6RSir71TtOxoy9RMNKmHIFMKDxDJF0E4MLcyqdg0QUREY2ykS29ICIiIiIapL4mykREREREJ8XI1igTEREREQ1SXxPlg4NuBtIRERERER0/7FEmIiIiIjLARJmIiIiIyAATZSIiIiIiA8c4UT7A5i0nnM5H2IX0S3xO5zw2K8OOq5mjize/YYEl4keiDOnnnyMWrBb6P5/jJY/ViAUW5bGRH3ZANDRVJNaO0z7Qzb4pLYN/uzrw6Dp33NYvNSUf/6X9SN4Pud2I+uoYJ8pjOP/+sGPoxNHF6zormJtQPoha1hI4jl/HnfEgtCJCXBGRmxh2LKNI+hI9HidUxzlJ7MYo7pvHaX8wqZyAX3VCot5/qtv++olK7bGKE58y2lww+W1ARF0a4V/mo3byr8IQpuJw7ySRLQcQcAw7IiKizlW3/bDvAPF5EclmxzFrHJXFAPij6UTUT8c6UR5/bwa4Oo5xAGPnLwEAztuHG1MrRxWv7ZwbAOByAIALAgS4Gr4d8sjuC/B/HIDrbRDeb/MI8OeZiWjUlBNY2AHi80me7Os5XHADwDnpC8BlBYSzrqGGRHTSjPBPWB9g89YkMtN7+Pxvk5j7Un766mPsPbkOdRS7D5311wHMrO8hdm2s1sbPt7aA2TncB7CcVv9dwh13rRU8ckrPS5axVbqDy11EvrcRwdY+4Jpdwafu9tN3pbAKywuX1MNSWIUlDeRWQlBS5eq2H/bXflSuFGFPh+Vnha6+jPIbFnj36/9HZ0WE3IB0id2O4pUckPYiDCA6q/5bmq7TWPIbFniRg2iQ+OtjwUR9unqvlLZd6T1R1frJYzUixSgvkWbdAZAuA8eCSCn/d9qbJW+f3IUkvDspwBrX/C21JcVRmKogOa20LD2H2jo2ihcQlPfo41TrKGZpWyYvVLD01l5fxw1tSNMFDw1iMYizzmAd9xyLss3rSy9o1qVJDeuwu31TH4tRPO3irbX/cVEVUwfrztT+IG/DMznk4G25fvWfN8FwX63A9UK1T0wYr59maseHFvuqmWlMzWdQxwfdNPV4XXhaa6txv2o4nrHXnOjoiX305s2bfjbXbm5i6o8O0eFwiJ9tKvN9Ka5p/hfFN5ufiWu7qrftrokOh0N+TmnjMzFVFsWXXzlqr738yiE6vnrZsl2HY018KXau8OyeeO/ePfF/7baftlu5ZxCFTEX5T4zegxhVza+SEUTcg4iHcbGieo/6f7Pz0bynFBeF2rwqYvwhRNwTxHhJnlZ+LfcMIp7ltLHci4o5E7Go39syFnm569NK/9fXi9G6aZxGiq8em3YZ28draDcqLfOzXK09PIyLlVJcFOT1ZS5eaR1rpzHSuA90RtmWjftV/X95GvW2kZdNG5/ZmNvH0mrbNmw3w/XZhsG2ltpVtpFWs32zMZbGdWAmXuUzVJ/OYJ2b0mp/aL6t9etB8355n9Z/ljTPGazPtpHK67S+7GhY//VjSP3R+b7ep+ODmBOjmmOBvD5Vz9XjrS+H/hhSyQgdH4+JqP+O8WA+k+5uyb3DADCO8aval8euxVS9wgDcH2G5oY3PcV0pkbi7pZ0ewMHzP+H+1cdYvVbvpx679jmWcR/fdTEYZvLGClZWBtibrJRdfKD0O7jgsgLhV/qhLVHkVL0TpgcJKsoJPNgXEP9E1cPhCGBpQjeviaV6L8lETtUTqotF1ePi+TgO4TCJbLmTWIDoFXVviweh2Siwn5UH9Xhwc0pA6nW2PrixkEXYGsdNOabq9gOErXGsq3rxbNNLiCKMrLyt898GkdItR8fxAgAExD/21P/+pPueIs0yDdJETtVjKO1XNYWnCB6qlwmAI4B1/TrvYyz1nkn9ts3j6U4K0Vl1T5/B9m8j/20QKdX+AQC26XXErSkkfzDdikEsZqZpFq/6s2KD74IAvCsOZP3qt3XhTX0utumk9rPs9iFq0IwwValPp5QKdGrfi+xFacCkuCKiMgUEY/XBerbpZO016XUB4XSngxX7c3wAPAhpen3lbdRA24PsuRgFDosoqifp+JhCRP12rGuU+6KyifkPbyOje7ohWW7nm9uYdN5ueLrjdo5CIYsw3MjVLuHJB+qdLPLwmLy8bVYKwZgFQf3TfRn9n0KxCsB0KYhRrTYAFFAsAx6H/KW248XTQgAhdxWJF2EIFyraBPUwCHukYYm0ScC+F5ZI4/z9ZkPtGxsCixVgzV6PeaiXZ91y7byOnAAMPCbdfMJpC8Jp3TTWDrfSGZdh3Km3JpeoXEQBAvwmJjUVr9UFdRWqbToJcbp9233XpIzDKFnume7EVPkcZwsheAwyb9v0OuKvUwi+yiPkNn/E69fxoaFkAjDY73SfFXcIomYZk6jAD3vt+NpdaRwR9eaEJ8q7ePThbWB9D6Vab7BUa9wxg9rn4yr/Sqp480b01aCppl8s3Wt18O61j6tZ4tsp9ReSB74JwPsqj5CtiORhFEv6mlUziWaHdZaDZUNgUUQAgFK/a1/D8apl1CV3RzWfqKaWu79MD5pyuOA2edI3yHj7K4/VWBCYqkDU1yT3meusALwuogpPfX8uF1EAWvROF1E8BIQLne51vR8fqtt+XU2zUpPcYSjQngRVt/2wx/wAk2WiIzX6pRcd2n2oHpBnzthvZzDzzW2Enh/0JYa9jQgikQieDeQepnlk96UvXPWlSHGlgrhh+UUPHD74rSkEv+73fZqrSHwdREpdstFVLHmspsMQpm5qetE9H8ch7D+A/+sgoHvN9oEfwmEQCy3u8eu5GAX2vUdwD1rpcrfUcwm0HgynaHaZt1n5TR+5fYgiDK/6Bw/KCSzspHQlMTa4zvS5XKRhPlLCE073di9do21d3V5A0CiBakq/7hsHPPYrXvP6vz/kN9rtm92xTS8hehjEU9U2MCqJaYylk21U1+vxoYG8b/bK9oG/+3smlzNYi0QQWcucgHvqEx2tE96jfBl/WJ/B/YVJOBekZ2bWt/D46hx+7qQZ+3XEXgLzH9bbkXR/54uBKWQRRhS5hi8QbflFf3r3DC77yzrvGQtresAFTU8VpLtEpNVfw0rpg9JzYxyL4V0OHAEsTQSlXh+D15LzgD9mh2VHs0T1HiJ3CCIAi/4yed9LHmwIfBJHMlYv84jOVhB/YVfVMRolz1HkVvRxNLbV/3g9CK3kgIi2LMVoX/DcyCEa8aq2VSd3vZASbW35i4D4vKg5sfLcEJHbsDRcWenozheG21oXq6l9M4diRL0dReReWfBA9a6+xGtar/uDVM8b3ql/ToSpHOLvvNoa277wIDQfhz9mgUXZBrpYDe92s9LlFZ8ejw9K+UZ9O0aRm40i9aKzMIzKN6KzYne9yQ47fgng8PB7/GthZoDjY4hOnhG+PRydFNJtmdwdJEq9a3UbLyI63U7i8aG6vYYnO8Bv5hcxw9INItNOXekFUa2G8AR9CRJRf5zM48Me/nXnELD+Cm4myUQdOeGlF0R19UuZnVzmJ6LT4KQeH5QfuMLEHFZuTA47HKKRw9ILIiIiIiIDfU2UiYiIiIhOCtYoExEREREZ6GuifHDQn/sMExERERENG3uUiYiIiIgMMFEmIiIiIjLARJmIiIiIyMAxTpQPsHnLCafzEXYBHDyfh9M5j83KsONqo7KJeacTzlubYMW22i4eOevbcyCUdf9wF7X9ZyDboYrEmgWWyCrykH6gwBLxI1Huoo2NfN+jo85I289Se6wW+j4HbuumlM+S/FhLoDrgOeY3BrWdO/AvFiCWaD3NX1eBf7QA2SqAvPT3vwxgH/rrKvCPfuBNi2neJFTzrwIxE/EPiPR5lY69o6q67W+zr0ufC//2oD8NZMYxTpTHcP79YcegJiVe88+Hnf4qJxC6xxAT84Pn88fjxMB+HpeOZEY2uM4cyYxOsTxWjzKZscZRWREhrogIuY9onseYkkzqH/3/4rYhsCit98qU0Oe2j7ErceA/k62T03Mu081pt5c6iZQ+Ry23469vAn+XAl612LYdx9Kq40COadAnRYXVtgl1+4R1EPJ4upNC9EoAtmaTFJ4ieBjF0nTTKY69xmPI6J7c8Jf5+s1+HbHS9YHPZmZ9D7Fro/TjLpdxp1TCnWGHQURteW6IEAEp2UjjRP1SXW3ZhulcAPj7oJScnuslGcpjNeJFeCIHcaX5ForOtjoBtAG/jQJ/yQK+QA+xACgn8GA/ivhUAcFv8wgY/Ax4dfsBwhNxxN8F8bQQaHNiWkVizY7khQqSI5w0ahSyCFvjqLRY7vyrMISpykh/5vSfs/yGBd41FyqLLU4Qjqlj3KMMjL83A1wdxziAsfOXAFzCefuwo6LjaxzjV4GZ98ZRuyLx/nkM4nTCdVYArC64ANjOuQG44XIMYEZEdDJdiAJ7T5u/rvTinrUBcAF/B+CMtmc3vyEnyQYJaUd+7QP+Mwj8tdkE6vnbgF8C+KW+l7mKxNdBuGdDCEwvIbrvbbwiVE5gYceN3I0AAleiCKdb9TLmsRqxj3zPqlYViRdhCBd8zZPFcgIP9gX4PzgpyyzxXIwCh0UUhx1IF451ojx2LYbSk+tSouO+g1LpDi6rXq9f8lfqX526OmbpeW25hPTcI+UDXHgk1c0q9a3yo/Z6re1J3P4GyCxMqkoe1PW26hiUOlmVwiM4b21i9/l8rVRC/bcmwofasopHHV5+luq5tbXA+vKI2v+FR6p5GdWA65ZLFY8S5+RCBvjmNiYNY9aVijQr0dDE0VjLbC7eMVx/Uqr1tF/+ooTSF+o9RlFFZi2CSGQNmY7qiuts00mIypmxOwTRqMetnIBfd8nTqJRAc4nK8DKgUsdpcDlTubyom5dmPuUE/PJ71fPSX0ZvuFSmqamt18y1i1ffjnaZ6yUVmtpgZV615fAiDCCcNphXYdVwXXZXK94nfdvWzWtoq9t+WDby9TZ0f6ta0F1uV68T431J2RbmS12U7airMTaqw25YN51tI6OaVKNL5vpac8P3tIih2f6T39BvK/367fKS8q9vAn8XbpGceoB/EIFfA4ANmBcBnzp5yiO7D0Qv9qPf0QNMCsDrZkuim///EIH/oZtv4SmCiOOmW2rv5pSA8AvtNsp/GwSmbkrHSvdNxK1hPDAq5ykn4I94pZ7XZlcz5OOAfnvWtnM6DCAMr0HJifK5se+kgMMg7EafWzPHVk28JspJylkk2yT+1R+SSE0sIaDqeMlvNCt7Uj6Heaw2+1zVSlDMTNOechwyeKVFXbV0goAJX+e95JrtbPB56/b7rZNjkdhHb9686Wdz7ee3+ZnocDhEh+MzMVWWnnv5lUN0/DElSpG8FNccDvGzTXVc0nNru/K/u2tyG2viS0279f/lZ8XUH/VtGXv5lUN0fKV9d20+X70UxXJK/Mwhx1lOiZ81jV+sTVuL10QcRvG/2fxM025t3ameazbvhmUxmp/6fZ1Ot7um2Ya1WBq2SZt4TauIf354T7x376H451LHbzYpJ0bvQYzuNnu9IsYfQsQ9iEKm0uY9yrSCGNfHuxsVcU/7WiUjiLgXFXPKNKW4KNzTzWs3qnlP7hlEPIyLlVrDUix4prRSj7f+nDRNPX6DduR515dJblfdTsM07dafHEstjvpz6ljMqmQE3bJ3qp/bWl6HBq9J21VuQ9nuz3Ly38r2rojxh6ptX2vP4DllmeW2DOPXtN24zJr3GW1HuW0z26XZdmjYn42mbRqngVJcFIw+Swb7c+N2apzGKD7TvhVE8X/Gu3lnfTl2659v7eezHi/Uj2b7ejUuig8EUax2E4zR/qz7nBptoxb7jHY5VK3KnwP1cuSeGUxvYp9o+dk3c2zVLUe744hhnNopDI8LlYxg/L7aviyta6PPcH0ZzUxjwm60ybSNsSvHspb7Xbt56T6rDcczE99vDdvNoN1WjnWPsjkzePwyhutyScbl3y0D3/yMn0O+NKkAABWqSURBVDtuo95bLZV5DMIMHv/+cv3ve9e1ZQGVTfzpS93z9uv4/C5w/9+0PdTanm2DHmxTlrH1pD6v8fdmNK/u/vNtZK4+xp5hr2y/HGDzyX3g7ue1bQgAl7/YwjLu4zvN2XvreM2zYWZxBSsri5gZcLlE+FWbc/SJnKr2zgWXFSi80Z+RKwOekppehjoB8fn6a7bpJUQRRlbX8yFMqer83D5EkUKxCvlSH3SDSzwIzUaB/az27F1zmVfqNUq9zkq9KPIlw/gnqnYcASxNGKwHdTsOH/yGy92MDYEruthM9NQMWn+2tVzb13RQoXoZo8g1XHK3IbCo7YHzXIwazKOCOIJY2E5gNS3VQ3YziFHzPocL2iaUXqTcEdWXNu7zndHtz4BUT4oofPKCVbcfIGyNY121PM0+b6b4ltoP6mspheALYF0eiCqu5BDd96p60zwI1V6TXz8Mwm7U83kuAPx9m0F9TUnz0e5D8nFL2UeNrrw5Akiq3lfd9sMi74+ty0miyKlqXV1nBeBdcQCD8swdW5XlEFvW35q4AqDb3zSU5Wvo/a2X/SnHk/yG7urOGVctLjPTtKWUUKh6cyUCXKpGlGOZuCKiciEJe0dXk5Tjh7Z33XMj19n3G4Di25S2N1v3ejsnYDCfrm7ZfQel0tCC6YMMbn/oxG3903e1/x7ZYL4B1fjqSXXFjX786QBwj9KgRYUHoZUcEPHCEpGf6kctYQekA2L9qOXWDBqSvtgAAGVAf4BTtYJiGfC0OqGQD5rS21MIxiwI6qeZ0P4rnFXXN0pfqB0NI3LfRPyFHQ+2byI5bUP+2yBSEzkkO2mjb4a/rdWq237pkrKGPlm2IfBJHMlYUKpxHWAiq93WA+IOQQRgSVsQTktPtR7AZsz2gR/CjjLITK4n1Q+qOgzCHmnYwxvWsDkeKTl9kW8sZTBFd2KqlDy8zqI6bZS0SSfA4XQS2XKg8cT7QhT4P08BX6iLWHpnm05CPLcKS9oOy9vhfYba0R9bzVBOspoP4muyv0EeB7MjHWeLrwoQrClkCyF4UETK6sI6bMAZIPW2CKCI7DsBwmEWeXiAtykIZ9eh3K2p9TQm2FwQkESxDLh+SAJWIPlDFQEUUYAbvibfFbbpdcRf26VpHebXXbPjh+nvN8gnUjvSsnoA+YREQNxkGCcgUT5ptD3kp92l86OYJCvkXhYAyuh0y8bRHfzdPY2mr7XSfpCiPKhRou2BGRwbfBcEBF9nUZ12IbsvID4/zC/V4W7rmsIq7DtAfF6sbwP5zhVaeazGgnDPVuB/YYd/+wTcVcAdguiWE7zCKixpC4AOk2VHAEsTQXhf5RGyFZE8NBhUZY33d+T+lTjwv7NAp9WbDhfcSq+Y6vNWfJsC4G/6tuqbApp+rn99E/iLHfhrSK6NHgJ3CKLNBX/MC8tan9d1n3R+bK0i+zoF4cJ6i0F8WeP9DZCT0yKAPLLv/Fi/4ob9VR43zxaAM/LAwLMC8BZAIYvChXUsvbUjW7gJ1zvAfVFq02VimrZqV46qyL52Y+kTFx58nUX1nJK0N1NE8bBf30vdtBOGNxKW/+7se+oElF60It0FIfM3pRBjF4+cc7jfVVvSXRQy298N7n7B9o8wczWD2/d6uyexVDryI36SB7odPJ+XBtx16PLvloEv59reO3rs/CXgmwy+6+rHYMbw0fQMMgshzcC83YdzuH/1Mf4wkHva9j6Yr3Me+CbaT2WsxWA+A/kNaRDMTbPrzuGD35pC8GvdgKV0GIIy8MZIOYEF9f1ADdvpllSa0KqcwTa9hOhhEAtrDxDWXZ4brl62db9/EEPajlpVJNakuyWE3FLPMnbsA7hntXQyk+qxbemuMtKVDaBZj7mO29dlDy/g+TgOYT+LhMGgKtsHfgiHQSz0837S53zSoL5sp20aDJgzLKNSkT+zzT/XNuC/CsBfhvNjIjWOAJJKmUi3gyVtLghtSmJs59zAYRJZk98DTY+t7QbzmbgvsnRVrMlxzOGCGwUUt7MoXPDB5r6J+Lsssqj3uNrOuYF3RSReFeD/wAbPx3EUXmWhvlpoZhpFbVBkwzK54LKmUPwhi+QZHzyOAJbOJJF9g5blG/kNr3FZSW2wnn47K8ePBc33Xsffb8p9q2fVJUiddeac8B7lMVy/9xiZD+fg/FJ6Zjm9h8dPJjusYZZc/mILy845TDqVwohlbCl34ig8gnNWnYIr81RNYybeJ3vArUnVPJS4S7hjdsdw38HWXSfmlBKOq4+xl76EyScm369qp/RyHPMfTsK50CIW/fzU01Q2Mf/hbdTT9Iy8bPWe87FrMexhHpPqkpOrj7H35PqRlH0MRDkBfywIzde5NY7K4iB6GHXlDhM5iB3Nx4bAYgVYs2suKWtqvhT7qvICCNqeyybtAN1cBldKA1Tza+jJkxOFHSD+yRB7k490W7fhvon4i7BqfxAQn41DSCs3ZZLvu4sockp8jgDWp5Kwpy0ovJG2eX7DAu9+vVmlJ8Zwn2ihfim9XhKh6c1pWHcped9RTeMOIffKAq+yTNY4KrNu2F/U52OUPAtTFSRr+5x0P97gYf31lNxewzI5fPBb7QjuGFylcASQnAf8MTssO+oXoj3ca7r7+xjbppPIvbVoPm+az1rD+tV/Zg34loC9B8CbAHCuo3D6zIPQSgWutXqJVUdU+7Wy7zVsa/2+Bf2xqtdjqyT/SqrVb/5OuX55ttkUUnIa3HEjtyLF77tQgH0nheisXHBmc0E4DCJ4JgfRAQA++N9Jt9fLKdvbzDRtSSUcwZ0k4vPSvD0X3fDKteWSxs8b2tzr23BO00lU4IddvQ06vqIjlRtpj0ESs8cziyiKfbv3+sHBAcbGRja1IRo9hVVY0oUjKHeQD3xnjlfdYHXbD/trf0+XZ/vRBlFv8sA/eoH/Jg6v5EHtXywAcl3WTZ8Q/Tq2lhPwx5Lwt2iHx6ABkk8W3frOmg627wkvvSCiE0upx/2EXy406uT7GA+75EFxJQ78vwc93I2DFNUfkkhZ/U0HudXrl1v8CAn1Xf5VGGZ/KOyEl14Q0UlTv8zex4GDqjsZdHO3BKKe+ZKAb9hByM4FgH/o8eesCYBcfjTdcorO7/pD5hmU4ACQSjhWzHWysPSCiIiIiMhAXxNlIiIiIqKTgjXKREREREQGmCgTERERERlgokxEREREZICJMhERERGRASbKREREREQGTmGinMdqxILVFr//fryMWrw6hVVYIn7Nb7WPBmm9N/7+/ElURWLNAsvGqCzpqMXbufyGBZZI/XE8P//KZ0R5dPdZkZZVPkYUVo/x8hLRaXTqEuXq9gOErXHc1P+UofqAb/gFrPtSWEugqp+knIC/bTvSDyZYIhb4txtaaBOvnCA0fCHJsW3km06jzLP+BSRN1y4G5X31xygmvTqF1fq2Kawab8u+GPGTnKE6veuuuu2Hdz+K3IoIUX4czx9A8SCkxDgb7boV11mhjzEREfXXKUuUpZ+KjF5R/RpLOQF/uoD4vPKllEN036tLIPNYjXgRnsjJ01QQRxB2dYIl/544piqadjTJspxIL8APc18r+nhtCHwSh4AwvKp28xtehK1xVG545GcECNYwsgV1O4Bg7WhlIb9hgX3HrfnCFlf69EtoQ1R9UzD8W0tJAkLwNJmiZ+UE/Keix5rMk3/Odurm4PY7IiIy7XQlyoWnCB5G4VP3zjgCSGqSPw98E0DqdbaWBFe3HyCMKHK1RFROWA+DeCrnWflvg0hZ41ifttXaCc1Ggf0Hcg9sFYmvk/DPi0hOu3qKd31KAPa9Um9bYRXefQHxT7Q/xei/EEX4lZyClbNInvHDb26usjyy+zixX9jCWdU2OOMy9TOWfecIYGkiDO9J6KUn6pLtnBuAGy4HAJsLAgS4hvKBJCJqdKoS5fyrcFeJX/FtCpjwqd5XReLrIFIACm+qAKoovgOECz5VwpXHajoMIIViFZB+z72z3thm8dqm1xG3AuG0BZZ0GJhYUrVbRPEQwAc+RPezyAOo/pCE+6IPqMVrhgsuK5Daedq+x1NfcmKU+FW10zRcUte3oSmHyGM14keioEyj+1s1r4ZSEXWPvlxiY99JIbVjr/2Nfa8qJqV0pXmJTXXbLz2vKdlRxVFbFi/CkLdTk/Y8N0RUpoBgrFWZgRJTDwl1wzYynp+mNrZJSYoyTeP7lXIJ3TpsKEHS17Z2t+7MxttOy3pgoxr7wqqqtMn8vtm43Kp51fYlO4KHqO2fxsvVbn9osX41y2BpeKivpOk/S2ZKxYy1idcdql+5aei4ICIartOTKJcTeLAvwP9Bu64KuSe1lvTKSbDSA1lOwB+xI3khh7gVSL0tQklO3efktgursES8wGwOUXSSnJqNVynBAKDp6VbzwDcRRrZQRfa1W9srbYoNgcUcogjD26o2ubAKi6bkxKg8I4Vguogl+fXKlIDwi8ayFfdsvcQjd0ZX2lJro4K4NYVgOgn/vPR38odqLZYFrNfjmI9DUJfRuENS2YwViM6Ktb8FOXapDtSGwGI9zqYOg7C/cKGixDuRQvBrOV5HAEml/AbKvOTHYqCh99o2nYQ4G0U43Usy0koeq7r1a1j3uu/Fg7Oq0iHVFZNOhNN2JC9UNNtAWxufhU8VR24ihWBMTjw7WXd9iDe/YYH3Xby2HcX5OArpTmujTeyb5QT8mvIt3TZwh+plXap9stk+01yb9avEkg6r1q20roWpCpLyFbHqtl9XdpWDe8c+oP2TiOj4OjWJcvWHJFJWP3wteyqqSKx5EUYUS9ONX035DQssMSnhMy6fkHtO5ASqlwE4beOtFpECABRQbNLL6LkYRfjFApJnfPDABteZTqNQ6nRziCKFYEw/SLCKxIswMJGrfcEaExCfr9f62s65gcMiivL/+W+DSE3kNOvL83EcwmESWdWyqXvXhan1xl4nd0gbh8MHf0NddhHFQ+XSru4EpyNR5FQJTM8DktwhiPNxYMdu0IOoJO+99bTVSnGa0WxH6YqC0Ume50brAWbqhEsqL1HP24bAorbu23Oxy4FgJuNtSj4Z1ZQtNcRrTrt9UynNqhie1Haq1f5gYv1Wi0hBXdIll5u9rX0i8XQnheisuh0Pbk4JmpK0/sRLRHS8/WLYARwN5cCfbNEzU0VizY7gYRQ5zQAuKcFM7dilXtMb2haUnmaXFQim7VIvjS6B6DwRaxevXNYxEUf8XRDBrxPwKUlbuYgCABcAuH2IpsPAlWTtndKXYafxSAlzSB7U6N3wQVR94Wvqfbu174Ulon9S6LiuelW+ZK9tBahvX/nJmAVBZYK0BeG0frsfscIqLOmw1JPY8qSjGx6EVnJARLWOJ3KabThw74qowgMblN7KlG6C7u+a0BvpBDCof3piALM6olr4tuvX5oKAILKFEDxuoD4eQfs5DqctCKd1zVg7+0QSEY2605EoF7LSYLymPbzNkmSJ66wA7Lu1vczlLJKH9dIIqbdWf9u5dvPtLt78hlceXBiApwwkY0EsbPsMenWlBLd/pJ4nddLTNz0nbvLVAE070naVThOkXq1AOQF/rIillRA86r97XoDuKYlNdHaQtwFTTnYA5YTCsnGEybKSJBZWYd8B4vNivXexsAqLPiE7MgLi8yeop7OD9atOhDVXAWSD3R+JiEbDKSi9kMoDmg/ia50kA4Btekmq1a0NSpIH86kG0UmlAkEs1Gr4pF7fzgcPtom3sArvPuqXReVLxamdBVUNsTyCvN/KCTzQ1G/b4LsgILVj7+l+t56L0fpdPPqour1Q70GuPamUrOj+HgipHKDVZXzpFnxSYtM8KakPjuvPOpJPeLrUfDCfAeWuLB83+xQog1712q+7njl88FtVteVGbC4ItQG5qPX8d0rZx/tT49vJ4M7G9auUOqlrpbVJsrR/hNP9unVhv/dfIqKjc/J7lHU9vw0KT+VkKgxvRPuFUu9lMXHp2hFAch7wx+yw7OjfL8lvWODdV81gR57WGkelVjrRIl55EA709bw3cohGvAjGVuGaBVIAlkysGkAeXb+jfkY+YZAH2DVcwNX1MtmmkxDPrcKiuUzbYS+dOwQR0LUB7Xppy4bAlSiCae02yk2k8EA/qdUFl9HfQG1gYX25U7BHgp0vkxLTJ3EkY6qYNNs6gQf7Zko+pBMS7KQQfpVHyN1hL7DRtrTGUVkcTG+ydp+KIreSrC+f+ybiL8KqcgcB8dk4hHRR10qbddcXNgQWK8CaXd7GdbX93BHA+lQS9tq+GUVuPo4HMX28bbhDEG0uzfFBM59+MbF+leNFQ6mTav16bojIbVhaHBM70eP+S0Q0RBZRFPt5bf7YyW9Y4MUR12P2YNTipSOiJLtHXVvcEamko9BVMkVHQ76Cdka/H/W47eTyjqYnfSOx/xIRNTrhpRfSIJXoxVE5MI9avHRU8t8GkUKrEgaiHhSyCKPbO8C0x/2XiEbVCS+96PdgtkEbtXhp4GplE0O+KwedEAYlLQCk0iKxw9Ii/V1mDO5cwv2XiEbciS+9ICIiIiLqxgkvvSAiIiIi6g4TZSIiIiIiA0yUiYiIiIgMMFEmIiIiIjLARJmIiIiIyAATZSIiIiIiAwO5j/LeRgRb+wDgwtzKp5gcxEyIiIiIiAZogPdRriKz9gTfn5nDyg2mykREREQ0WgZYemHDzBUX8K6C6uBmQkREREQ0EKxRJiIiIiIywESZiIiIiMjAYBNl21lYD/8dhfJA50JERERE1HcDHMynkAf1HfIOGEREREQ0OgabKJczWIv9O341v4gZx8DmQkRERETUd4Mtvai+xaH1V3AzSSYiIiKiEcPBfEREREREBpgoExEREREZYKJMRERERGRggIlyFZkXReCMHbbBzYSIiIiIaCB+MYhG9zYi2NoHYP0Nbt3gDeGIiIiIaPQcwX2UiYiIiIhGD2uUiYiIiIgMMFEmIiIiIjLARJmIiIiIyAATZSIiIiIiA0yUiYiIiIgMMFEmIiIiIjKgvY9yOYO12Pc4BGCduoXFaf5UCBERERGdTsb3US48QyT9H/jN/CJmHEOIioiIiIhoyIxLL9z/Hb+xHuJt9YijISIiIiI6JlijTERERERkgIkyEREREZGBJomyDfYzQPHV3tFGQ0RERER0TBgP5lMUniGSLvIOGERERER06jRNlPc2ItjCHFZuTB51TEREREREQ9ek9KKKyjvAdZFJMhERERGdThzMR0RERERkgIkyEREREZEBJspERERERAaME+XCv+L7QyvO8kYXRERERHRK/ULzXzmDtdj3OATgml3BjGM4QRERERERDVvr+ygTEREREZ1SrFEmIiIiIjLARJmIiIiIyAATZSIiIiIiA0yUiYiIiIgMMFEmIiIiIjLARJmIiIiIyAATZSIiIiIiA0yUiYiIiIgM/H/yPDp3H2IA5wAAAABJRU5ErkJggg==;" vertex="1" parent="1">
          <mxGeometry x="90" y="386" width="576" height="148" as="geometry" />
        </mxCell>
        <mxCell id="LRrMOl0kTj3Txce7bID4-4" value="" style="shape=image;verticalLabelPosition=bottom;labelBackgroundColor=default;verticalAlign=top;imageAspect=0;image=data:image/png,iVBORw0KGgoAAAANSUhEUgAAAiMAAACPCAYAAAAoa9sNAAAgAElEQVR4nO3d30sb+f4/8Ge+nD/AU4qbHygbYQtLKYuxp4e47F5Y+IJBpSYczmLo3rRuC0rdixYvDGggXkgLa8TCFunFtxL5HA6JRXsiHFgvTmnkuBpZluUDPWCWLTGplD3+B/O9mJnMj0x+TzKJPh8Q0GQy85r3TGZe836/Z942QRAEEBEREVnk/1gdABEREV1sf1D/c7QextYxALgxNv81+q2JiYiIiC4QJRlJv8DWMZMQIiIiaq1CM03+/X+BvmtMRIiIiKil2GeEiIiILMVkhIiIiCwlJSN5pN+eoeuyw9poiIiI6MKx/WN5QfjxrAt/mpyBz2l1OERERHTR2MSHnuWRjD7Df67cw8yw3eqYiIiI6AKRmmns8FzpwtmHnLXREBER0YXDDqxERERkKSYjREREZCkmI0RERGSpQjJi/+iPwPG/kDyxMhwiIiK6aKS7aUT5nSie7Z+BA+URERFRq2iSESIiIqJWY58RIiIishSTESIiIrIUkxEiIiKyFJMRIiIishSTESIiIrIUkxEiIiKylGnJyOGyCy7XJDZzANIrcLlcWEmbNffOd/pyEi6XC5MvT60Opb3kNjHpcsF1bxNNKxlpfxTL/hArLhdcy4fNWpq0zBcIh8MIh8N4wd8BEVFZpiUjPR/7zJpVi5xi814nJQeV4pVOsvpXs0+6JbVR+Tp60Nq98wgvtjNwj85jfn4eX3taunAioo7zB6sDuCi6b60he6v5y5ndzuJBJ538HONYy45bHYW5TnL4L9z4spO2AxGRhUxLRrp7rwEAeh0A0AMffOhxmDV3ogY4enENAHq7AQA9I4Dv4x5LQyIiIoV5HVg9D5DNPsAAIF3trmHcIBmR+04UXvq+AlL7vvJagdLQoFT9i31USswD0H6umUZuzujH9CsgOdVfYlnidCtpXcz6Zg+5z4PhPIrXp7gfjbwccd2Kl1NtvJWJ66H9zunLSVXZVF++xest9ReqsXwrNieZsj8M4EFWrjHqxvizLNZudRcv6ySJaDiMcDSJfJVlSkREJhBa6OA7p+B03hUSJyUmOIwWfS5+JyocCIIgCO+FxDdOwel0Cnc338tTCFHN/4LwfvOu4PwmIbwXyhHnpf6eLloh6hSX5fxOXLpwkhDuOp1C9FA1jWY5UnyGyxbnp3y3eDmFz4qWU328xfNXzWHzrqosVe8V4q2ufMXtVC6WauJVRf6dqozVTNofqpb9h7C8sCAsLP9DyNX+7YJccrnheRARXSStu7U3t4nvHwOz28Y1JsApNp8tAY/uaz4f+HYLs1jCG3WNwqMt1ZVtD3pGDGb3Kok3ORPifrSF7LcD4t+Oz+EbAX7+Tb7uHsCDZ+NQrrG78flwfV0lfU+PlL4ecrNCHZZGtTVCdXUgLVu+8nbaMq5dMI3J+0M1nD7MzM9jfsYHex1fz+9EEQ6H8Tf8te55EBFdRC3uwFq5H0mptvyffzsFquwQ2H1rDUeYRP91F6al5a4elEqCaolHrOJXd7c8XHZh7LHuSyPW3VnUqg6srepzYcb+0Cr24RnMD0tJSfQT3GNCQkRUlY556Nm13tquwrtvrSGbzSKbzeLoKTB9Xe7TYJ7Tl5MYezyLLWk54rI67RbnzlTr/tBK9s8+QdfZB5i8uxERnVutS0Ycn8M3ksT09VKdLsUmjuTUnCZpOFwew9LIKr5q4Cq4+88+g+dMdKP3UyC588a8h23lNjE3lTRrbjqNxyve8fQzfpPK9/TlJPprjlfeTv0VHmrXaLzN2x9KYgdWIiJLtLCZRmzi6F12Ycy1pLw9soojqd9FcfOK9vNqGTWdzG5ni5ppBr7dwqxrDP0ueWmz2JLvCKpmjW7dx+zUmGp9ZrG1PYvkszKxjLqwBGj7olSp0XjheYCtRy6MyeU7soqj7Wvof1bpi1rdt9aQ7V2BS14XAEZNYWXjTa/ANaraDzAG12PtNGbtD0RE1N5sgiAIVgdBdK6cJBFd+4Av579Gv9WxEBF1gI7pM0LUMZwO/BEZ/GuHjT1ERNVgzQhRM5wkEV37EWcA3KMcn4aIqBwmI0RERGQpNtMQERGRpZiMEBERkaUaTkZOT017SgcRERFdQKwZISIiIksxGSEiIiJLMRkhIiIiS7VZMnKKzXsuuFzi+DWnLyfhchkNcCdPJ73ubZo3vozZcpuYdLngWj5EIe6mxJvHRtQGW3gRewDyOwHYwgFsnJi+ILpITjYQCNtgW99DYR+LbnDsHiIyVZslI+LgauUdYsXVj+TwkTJS7nAS/boT/OnLyfZIUhy9uNaSBdnhvlRhkvQibGGb9qU+sZxsIGCUwKQXC0lO4eSkOyHtretOWPrlyK/1vdKxaOarTa5kYpJlw2Ja+7/+tVh2ED+9EjHrYgkUPVF1D4uqZe2tGyzbsEz1y1M+L7U+4ku3DUp9rll2iW0txW5YvurpnG7weW1E1GwtHCjPHIfLY1h6tIXsLWWotO5bi1jd6cf/pMfxgEfOCiJIzc/BC0A8IQ3Cse6GcNtbwzz88COI5+kJzBWVtx0TMwImAIgnXQfiV3KID9u1k3nmIHjmCjFgVDCYlx/+rhB203PwesT57b4F/F3l1ql+/hsGcdaqy4/06w3kPRMwnNPJBgJrQST6UhBm5Ijz2FjfQP72BOzDcQjD0rs7ATjeBpCb0c3LOYH4/ATKlm96EbbtECKjAuJS2W1EHXBEoZmfvyuNJzv5xtebiKgBbVYzAvR87ANGetADecj7a+iVR4LNbeL7x7PYKhrtVqxR+fk3y+tBDPSgZwTwfdyDQs3Pp71NGXXWfdkPdLnhBmD/yAPAA7ez3De8GOoD8Hum5mr3wJUIQr/sVZ6wQZrlnOwifimAQNOX2oBLAQQQx26J5rG9H4JIdMWQ0yR/dkzcLpG81CWPjdch+G/kVAmeHRMzKUTOgniuqrnxXAkAb3fLbH833F2A/7Ibhdq3S24TYyUiasNkpPvWGrLyEPGeB8jKQ84DOP13EslHn2MAwOGyqs/I8iF6PvYh+eu7wvv9U0ng1TT6Xcp0K2mgdL+NQ6wU+nZAHOLetYJDuc+HZh4qus+L59uN8WdZrEk1OQPfZpEtSqYAII9kNIxwOIpknf087MNxCPJVr2cOQqXagpMNPDkG/FeGaj+5fHYHsd+fNLFPSgaZMwCfDSFyvCv2g/kpDs/VIQBA+n279lpwY+ILD4I/GCVqe9g9BiJfmJl4GDjZRfwM8HykX4qYWGiSyI8m8PCSNkHREmu65JoT722hxlo0IqLK2i4ZKefdr0nMfjkApFcw9ngWW9kjrBZqHUQD30r9SJ76gJFVHEn9SrLZrNSE043xe7PAqyTeqDvGpt9gCfpalyWMXU/Cd6DMc2lU7FwLQExErk/j2rayjK1Pp4v6r7SXEAblPgRrQXhGhTqr6O0YugLEf2p2UuDFUF8Iu+k8dt96MGTYDKdaJ10fDEt4lARK4ySDNPxwt6RawWg5xv2KvFdbU8tFRFRKByUjp/jtf33ocQCH/1qC7+lXGMA7vHvlg+/PYq2DOikpy/MVVkeSSP5bSRmUear5sHqwhnGpmaj71n3MYglvpKvIw79NI/loS9NPZeCvq/DpE52q2OGbmcf8/Ax8ZZtWGhVBal6AMJ9CpME52YcfwrP/vPikazLv1QhCr6cQvzQEr+EJVV4n+RXHRB1lmNh3GHe2rT1i3Lkh9sXoCJ5m13IREZXXQcnIO7x7BYhJCXCttxvI/YafpT4l735N1jAvsXYkOfU/Yi1HbhPfP1aSmko0fVMejylNNC4XXNenUUsk1vHizg0/Qq8buU1TrrUwMSzZSQaF2XqGEDlLwHNVaR5IfMiYvkj/jZwqoWmsOcL+Wam+GAlkWpKjGC0nj8zvcv8PtVbVchERGeugZKTY6b+T0on/EG9qSCYAAJ7PC7UcYl+U+4UakEqu9aqW82ir0ESjvNaqnpeV7MMPETlTdbZ0uuExOInl36cLHWP1vDdjSL/egPmpgWYpmJs3utumVcTamKIEqFyzi1Pqi/GT+r0hBPR9NppBWk5Rv5qSfUmUWq7d5kZGRGSog5IR8a4UoBufD/uwNOpC/68+rI4sYcw1hp+fLmoSgO7ea8X9QjQG8NVTH5aeTWJuClj9q1GnUq3D5TEsjaziK+mkOPDlLPB4rLhTa10a78BaOy+G+hII/l2uHRHvrtHWluzh+X6idCdX5xACiCP+ezPiq3Q3UOt4r0aAY21ThnhnTABDJWL0Xo0g9DaueseOiS8iwPGgrglIurXXtGjF5ST2HapnnuSx8XfxlmLjpE6s5Yq/rXeZVuy/RHRedNBzRrrR+6mYXHTfWkP2lvz+OMaNJvc8wNYjF8auuzAtvTW7ndX07+i+dR+zU+JzS9YMazKSmFZ9H4+2kH2mSlo8D5DdBlyjLiypvzayiiP5jqA2570Zg38tiKmdIcSH7fDeziEWdcARDhamKf/8Dbt498h2Aqj00DU16TkYBds2hLYBdMXE52DkM0gAeFjVzEIYDIc070QMn1vSAM8ccu8DcKzZUCgZOdaS37mD2OsQgvArtyN75iDY3QisDcIWlt/0IzYZr/4OG/lZJfL/+w7Y9gHN81Y8cxAA2ORyBYC+VNmmJ+/NGLAWBLrquXnaDsclAGdn+PGHI/hu99cxDyK6qGyCIAiNzOD09BTd3a057Z6+nET/r/dL3Bpbj0OsuMYAXZICQLy1d/RnTQdWIirjJIno2o/AjXuY4UPUiKgGHdRMI9VkPB7D5EtVB9LcJlZe1nMj7Sk274m1InxqK1Hjjn74EWfowiefMREhotp0UDMNAAzgQXYLK65+uKbk93xYPTBsqClBrA1ZAsRmF9NqWajt6JszjFRouqAqpF8gvJ0B4MbY/NdgAw0R1aqjmmmIiIjo/Gk4GSEiIiJqREf1GSEiIqLzp+Fk5PS0fUdhISIiovbHmhEiIiKyFJMRIiIishSTESIiIrJUmyUjp9i854LLtYJDiE9cdbkmsVlyfBmrtS7evXUbbOGAODZKehG2sE017sh5tYfFsA02+bXe5AHmqI3lsRFtp32gnn1TXIfATjuOjtxu5UslScd/cT+S9sNzsN3aLBnpRu+nVsdQi9bF677sr25CaUe1Rc0ceM0q4mi9wryAVJ/VsXQi8UDVHklrO5+I69GJ+2Y77Q9VOtlAQJX0qfef/E5ASQYLr0V0/mm5ArsbVZ4NOkqHPYGVKtn7JQT/jRg8+3Hsnkxgok1GvSUiqkV+JwDHPhCbFBAvdRyrNFgldYy2S0Z6PvYBIz3oAdDdew0A0NvGA9W1Kl77R+IAOm4nALjhhx/uol/gHnaP/QjcnID7QxCDP+xhgo86J6JOc7KBqX0gNhnnBZWe0w0PAHwkngDcXYD/stvSkMzQYY+DP8XmvX4kh49w/9d+jD2W3h5ZxdGzcaijOFx2KZ8D8D09wtqt7sI83t3bAkbFMWpmt9V/q0fwVY1jAwCYxVb2AeoZzeZoPYytY8A9Oo+vmzUwX3oRttdu8UohvQjbNpQh5SFdabwNIPdFBo7tkPSuv64f/N66DYPHyv+RUQFzHkCsjncg80UK2B5ECEBkVP23OF2tseyt2zAI43Fk9LGox5tRrq608xW/E1GVzx4Ww2KM0hppyg5A8Vg3tV6VSdsndSWOwf0E0BXT/C3OS4wjfSOHeGHkW/E9FMrYKF7AL3+n3Jg8NcUsbsv4lRwefnAoZVw0D3G64JlBLAZxKgzKuOFY5G2urL1fU5ZVKirD+vZNfSxG8VSKtzD/mxlVTDWUXVX7g7QNL6WQwmDZ8tX/3vyG+2oO7teqfaLGMaAKx4cy+2o101S1nGYdH3TTKPG68bwwr+L9quh4dlFqf4QGvX//vtFZ1LI0IfGNU3A6ncLdTXm5B0JU878gvN+8K0QPVV87jApOp1N6T57HXSFxIggH3zkLnx185xSc3x2Una/TGRUOhNqlXywICwsLwv87rDxtvVIvIPiTOfk/IbIAIaJaXi7pF7AAAcsxIaf6jvr/apej+U42JvgLy8oJsWUIWPALsaw0rfRZ6gUEvEhpY1mICKkqYlF/t2ws0nor04r/K+ViVDbF04jxKbFp17FyvIYOI+I6v0gV5oflmJDLxgS/VF7VxSuWsXYaI8X7QG3kbVm8Xyn/S9Oot420btr4qo25cizltm3RdjMszwoMtrU4X3kbaZXaN4tjKS6DauKVf0PKdAZlXpVy+0Ppba0vB833pX1a/1vSvGdQnhUjlcpUWXcUlb9yDFFete/rJh0fhJQQ0RwLpPJUvafEq6yH/hiSS/prPh6fF23WgbVKj7akWg4A6EHPiPbj7ltrqtoNAJ7PMVs0j/sYl5tTHm1ppwdw+vJ7LI2sYvGWUt/Sfes+ZrGEN3V0AOu/PY/5+SbWishNNIXh291wdwGhX/TduSJIqbLsqjvGyk428OTYj9hfVJm6cwIP+3TL6nuoZPt9KdUVvS4W1ZWD92YM/rM4dk9qiQWIfKG+avBibjQCHO9KHdm8uHPDj8TbXaVDb3oXoa4Y7kgx5XeeINQVw1PV1ah9+CEiCGFX2tZ7PwSR0K1HzfECAPyI3fQqf/+l/isezTo1U19KdeUr7lcF6ecInqnXCYBzAk/1ZW5iLMoVtn7b7uH5fgKRUfUVq8H2r2DvhyASqv0DAOzDTxHrSiD+U9VzMYilmmlKxav+rdgxdMUP/J5pSvnqt3X6vbIU+3Bc+1v2DCFiMBv/jZwyndysUKvjQexeFTsJC/MCcjeA4JrSQdU+HC98Jn7uR2i71g665hwfAC/mNLUX0jYqoq0J8V6NAGcZZNST1HxMOR/ars+IKXKbmLw+jaTu7aKEpJJX0+h3TRe9XfN8WiG9ixA8SBWq+6Qfw/4u9uCtsiq8WgkE12wI6t825a6CBDJ5AFU3Gxn1nQGANDIngNcpHTj2B/E8PYE5Tx4br0PwX8lpk4CzIBzhojXSHmiPB2ELFy8/UG2oprFjYiYHRB1KzJZW5Xqkvkw60kG26THplhPatiG0rZumq8atdMltGHfiQ5VrdJJBGn4Eqpi0qni73FD3CrAPxyEMV5636Uo0+RglJA3TJf/y73g3PQevQXZjH36K2NsEgr/sYc5T/RHPrONDUfMKYLDf6X4rnjkImnWMI4cAHIXja33N6J3oHCYjh1i5Pg08PUK2UKsh9v2omUFflHa194vYAjkY1rfOJ0r+eOtX7gfS6LVaqeSiVuofvRdDfcDgL3uYs2cQP4vgob4PQTUn8xrbvZvLjokZARMA5P4Ujijaq21ZdwJt1XIimr415qq6o6DTDU+ViXUz4zXXHhbXgsCNHAR9HxGTuS/7gbcZ5OFV9ueTDNJAmVqWDDJngP9KrXtd48eH/E5A18dE7iNSYyjQJpr5nQAcawHgAiQkndlMU6PDZXUn1Op0/9kH36tpzL00ZyDAo/UwwuEwXjTlHv897B6LBzV1taUwn0PMsKmmAc4hBLoSCP7d7OeY5LHx9yAS6uadumLZw+J2CP4bdzS1Qd6bMfiPnyDw9yCg+8z+WQD+syCmyjwDw3s1AhwPtuAZDWLVuHgFDpTvACorVSVcqqnORJ4hRBDCoPqhSycbmNpP6JrP7HBfMrlpqWg54kkltN3YsyaMtnV+ZwpBo5NUSfqyL+7ka1a81TN/f9hbr7Rv1sc+/BCRsyCeq7aBUfNZcSy1bCNFo8eHItK+2Sj7Z4H6nylykkQ0HEY4muyIZ06dw5qRAXz11IelqX64psR3fE+3sDoyhne1zMYxjrUDYPK6Mh9R/XfUNE16FyFEkCr6kWqbasy5SjVoIpDUfoUX0tTk+DVXXBDvPtlWH+rkZhL5CsQ4FsO7J5wTeNgXFK9eDD6LTwKBNQds+5o1Uq50PHMQANj0VeqmN4/YMfGXGOJrSpNQZDSH2GuHql3ZKEGJIDWvj6N4XubH68XcfAoIa5uwjPYF7+0UIuFB1baq5W4aMZnRNpX5EZsUNMmr97aA1LqtqIawpjtqDLe1Ltaq9s0UMmH1dhSQ+sWGJ6pvmRJv1RrdH8T+FaF95Xfiv5FC7PdBbZ8HU3gxNxlDYM0Gm7wNdLEa3kU3X2fNZYPHB7mpR9mOEaRGI0i8ri0Mo6aeyKhQX62I04E/Ajg7+xH/TPua2F/RHB12ay+dF+ItdZ4aTkaNK3cLJhFdbOfx+JDfieLZPvCnyRn42ryZ50I00xAV2nTP0YGGiMxxPo8PR/jn/hnQ9Qk8bZ6IAOeymYZIoVR71tIkQEQXwXk9PsgP2UTfGOZv91sdTlXYTENERESWajgZISIiImoE+4wQERGRpRpORk5PzXkOBxEREV1MrBkhIiIiSzEZISIiIksxGSGiquV3ArCtt+bh5c2zh8VwABttODJqp5Xv3roNgVoek95y1Wzr9t0fLpI2S0ZOsXnPBZdrBYcATl9OwuWaxGbO6rgqyG1i0uWC694m2ING7RArLmV7NoVc9suHKOw/TdkOeWxEbbCFxXFE8jsB2Jp0ABPnbZNebXSQTC/CsQ/Ebho/jWFvvX3ilcvQeCwhL+7ohqOv28kGAmEbbFETxmqqUL6N2cNiYZ+ymZLwyA8KKzUWTKv2h8a3deVpNOuSXiyzPKpXmyUj3ej91OoY1MST26RJg+U1GofLpXtZmPycvpxsj+TL0YtrLVmQNDZKK5Y0HBcHOpyM1T9IltlONhDYDiEyWnr0UPfltokW9o/KD8RhH44j1RfCoBlJhBlKlq8uiZBetZ8IvZiTBtBM9ZWZLL1YSLjLkhOnydIPCqu8P5RJkOQkr4r1NmNbV5qmnfbt84pPYDWDYxxr2fGmL8b39AhrtzrpAXMDeJDN4oHVYVDD5BFTn1YcbMsDd9s8etoPd5kR4Lw3Y/CvBfE8PVHjAI8qzgnE5yfq/LKiUvlqBs5LL8K2bUP6fTMG06tGHhuvQ0BfqooB3ErsD9JAg5FRAULJsvcjNlk6+dVP2+i2NmV/oLq1Wc0I0POxDxjpQQ+A7t5rAK6h12F1VNS+etAzAvg+7kGhZu3TXjQjZXNf9gNdbrghX42104m3iU428OQYiHxh5mi/bcA5gYd9QOi1xbUjtZavZw6pPiDxdteauNPPETzzN9CctIdFKRFp2Um/mm1dZhrN793uhr9C8kN1EBr0/v37RmdR2/I27wrObxLCe+FAiDqdgtPpFJzOu0LiRJ5CfP/upjou8b3oofTvYVRwOqPCwUlCuFuYh+pzzbz1r6hwIJSY7rsDQeMwKji/SQgHm3fFz3V/ayL8TrscJRZBEIT3QuIb/ToZlIsmNnVZ6f4/jKqWpS670usvx6OP0zhmMd7CZ7p11ZRPybKtJd5q5IR/LC8ICwvLwj+y9Xy/kpQQWYCAFynt29mY4F+AEFFtz1zSL2ABykv/Hc13/UJMH+9hRID+/cOIgIWIkCr6vmo5yzEhp5tVUSz6eZSad82k8im8Sq0Xil7+pBK1Pl71Z3Wpe91061NiGzZevuJy9OuZelFmv6kUucF3i+MsXca5pN9wX6paNWVeat9vRDXLNWVfp3q0Xc1IVV5No9/1PXoOsshms9h6lMT0Qq39F5Ywdv0d7mfFeRw99WFpVO5oKTYvZLNHWB0Rm0ey0nTZ7AMMFOYhT5fF1qPSsY79eh/Zg1X4Xk1jbMeHo4NV+F4l8UbqmHu47MLY/67iSF7GwSp+HnVhpRkdpF5No/9ZT2FZRWWX28SkawxLj7ZU65zFA+kKZuBbpbwwoopZNQ3QjfFnqumMpFfgGv0ZqwfK97ceLWFM39m1Urxtw4s7N/zA8a6mvT3/UxyJrhjuyGWTXsQUnop9QuR+IceD5t+RcLKBwFoQnlGhsKzUpSAc6jbx9CIc+x6k5pVpBIPBwvLv04UaofrksRHdxZBqOam+hLbDYKHPhDxNChFomyfyOwFdvCl49h2NlZ3dDT/SyNTcybKKPhjNKt/0IgaPgchV8zq6FvopjUYgDhqnxKxvCsp8SACX3HXXksnrC01HbaP+IAkE10zsdFvNtq57f6BGdWYyAh9WD9YwLjXfDHw5C7x6h3c1z0NJLMQmoWbwYfWvA8rfC+PaJoTcJr5/rHvfMY77j4Clf2nvQUlO9Ws7sC7Xc4/KLLaeKcvq+VibLBz+bRrJkVUcfTtQ/FXTnGLz2RLw6H5hGwLAwLdbmMUS3mgOSuXjrZ4dvpl5zM/PwNekphX78ENEEMJuIf48dt8m4L8ypBy4PXPag7tzCIEu82PZ+yGIRF9KUw3uvRmD/yyOXc2BVh2vscyHRIPR2DExoz0Je69GtJPkM0gggqFCvF4M9QGJDxnp/z08308gMqqej5gANt5ckUCmae0d5pRvYt+hnJS3gdR8C5s4NPLI/G7CbM6CeKJOykcjCG2r7rxxTiCuTuKkpL3xu4Cq2dbN3B+olA7twKrrR+J5gGzWsmBMkMT0dRem9W/ralta1oG1SX0u9MR+HsV+/u0U8HRSR12ZeAIdfL2BO54J2NPPETyLIKW5stzDYngQId03m9JX/3gQtrD+TT8C8p+eOQgAbNs2hLbFt4za8d2X/UCDJyCxVkN/0lUlJHY3/AhiNz0HrwcA9rB7DPhvaOsLQqpYC7oCaEyT2v9NLF9NB1ZLmXRXWVcMT9Xr47mD2OsQ4j/lMeE0WE/nBJ7eiCOxv4s9eEvewVNZNdua/UGs0KHJyHmjrem56K71dmIiIhJ75MexezIB9y/iHQfKgTOPjeggQn0pCLe9qvcciDcjGM1ySvDMQfDMiX9Ld2kA2hOm/SMPsJ9BBqivar5wG6ig3BmRXoRNn1RAm2wYnYBN7/SYzyABDx42qyNyK8q3xdyX/cDbDPLw1hWv8fpmkDkr/73MhwTQFai/ubCabd3s/YFK6tBmmnLEuyuSv8qNNodYcY1hqa55iXdnJHfeNK+PguNz+EYa7wchNjP9jN+kfiinLyfRPx5hm+EAAATVSURBVJWseT4DX84Cj8cqPlulu/caoOr3UptufD7sQ3JqTvNAu8PlMSyNrOKrplQ/55GMhhEOR5FsZnuwcwIP+xKI/7SB3ePKdxzkd6YQrHAQLmJ3w6+uSpZuk1TzXo0Ax4O1PY/CM4SI0ft2N/xVNDdUT7ybQvOO1KwklOyrINY6hbZNeFCZerm/hIC+IeMrbenhVlU9d6MazS5fM+KtIhb7Rx6gqLmvBp47iHWF8ETV1ye/8wQhlH6AWqGfTAN3dJXd1jVMQ81xDmtGujG+sIrk9TG4HovvzG4fYfVZf419SkQD325h1jWGfpfciDKLLbkTa3oFrlF1miMvUzVNNfE+OwLu9auWIcet7hRagecBth65MCY394ys4mj7GvqfVfl91XyyBz2YvN4P11SZWPTLU0+T28Tk9WkoqVBSWjelBqj71hqOMIl+dfPUyCqOno23pImombxXI0hsSydXzRWWHRNfRBDcVjWf9KWQ6kvgSWEasaZEnaAk1mwIQlVTIFVZOwq1CBGkJmN4spZRvmTQRAAA6IohNyMe0I2aTvw3cojr9znnBB72BZXmp1oLRKqCD0rrAfgRG43Bv63E672dQiRs0Kykitd7W0Bq3YbBsDaRqb8JQ2wKiozWceopSgDl2CNISZ1UW1a+JsUrx6LdtwzKV96eP+xholLNmyE7JmZSyIQdsO3L7+niKIpX7FRbf5JQzbZuYH+ghtkEQRAamcHp6Sm6uzv99EFEZanuzjG/46SUgF3SNyuJ/WvSTeovsbduw+DvSrJjqaaWbxOkF2HbTtfwUDJrVbOt22p/uIDOYTMNEZnOOYG4/o6HZkvvIgTA85H5pwZ5XJVUu5x4rCjfRnjmkDNrfJ8mq2Zbt93+cAExGSGi6sgnoB/MPv3YMfEX6dZN9Vgk22nEJptRU7CH5xXGVbFE08q3OeTxXJ60+ai9lbd1m+4PFwybaYiIiMhSDScjRERERI1gMw0RERFZiskIERERWYrJCBEREVmKyQgRERFZiskIERERWcq0x8EfrYexdQwAbozNf41+s2ZMRERE55rJt/bmkYw+w4+XxjB/m+kIERERVWZyM40dvi/cwO85tPMz+YiIiKh9sM8IERERWYrJCBEREVnK/GTEfhldZ/9BuhNGniQiIiLLNWlsGqkj6xnvrCEiIqLyzE9GTpKIrv0Hn0zOwOc0dc5ERER0DpnfTJP/gLOuT+BhIkJERERVYAdWIiIishSTESIiIrIUkxEiIiKylMnJSB7J1xngkgN2c2dMRERE55T5A+V1/Qn3OC4NERERValJzxkhIiIiqg77jBAREZGlmIwQERGRpZiMEBERkaWYjBAREZGlmIwQERGRpZiMEBERkaX+II6y+yPOAHTduIeZYT6ujIiIiFpHec5I+gXC2//FnyZn4OOIu0RERNQiSjON5//iT11n+JC3MBoiIiK6cNhnhIiIiCzFZISIiIgspUpG7HBcAjK/HFkXDREREV04xQPlpV8gvJ3hnTVERETUEppk5Gg9jC2MYf52v5UxERER0QWiaqbJI/c74L7KRISIiIhahx1YiYiIyFJMRoiIiMhSTEaIiIjIUkoykv4nfjzrwmXeQENEREQtpBkozz06z3FpiIiIqKWKnzNCRERE1EL/HyXhWZncxcq0AAAAAElFTkSuQmCC;" vertex="1" parent="1">
          <mxGeometry x="92" y="136" width="576" height="148" as="geometry" />
        </mxCell>
      </root>
    </mxGraphModel>
  </diagram>
</mxfile>
